#!OML:ASF F:\VICON\USERDATA\INSTALL\rory3\rory3.ASF
:FULLY-SPECIFIED
:DEGREES
67
root -0.5699196243720376 17.00362636777741 35.93378976128996 5.981610407545942 -4.663288812442684 -6.873703560052764
lfemur -36.638929950215086 -3.882635056805267 -10.714769237780862
ltibia 35.37561292510654
lfoot 0.36137796005479955 0.8553840535236512
ltoes -9.928821929392885
rfemur 4.959081820780874 4.112293226091012 37.233295454109765
rtibia 39.028384380991994
rfoot -17.815635337793516 -7.02741255717885
rtoes -2.4436664787709383
lowerback 13.774785222676291 2.5476972489875056 6.5956488553854555
upperback -1.153833706529769 4.615941503460473 2.67435620986828
thorax -9.086530162127204 1.9512678130033478 -2.945326060754414
lowerneck -21.31837002471865 -3.354747705802043 -1.9206992116683215
upperneck 11.663242407979098 -4.817255771225033 3.219038066810615
head 7.218796127251076 -1.9261060914479282 0.7991257615379419
lclavicle -2.70841198220195e-15 1.0731076668921573e-15
lhumerus -61.65220566207225 -7.719908482419166 95.35341492593926
lradius 98.27058827775882
lwrist 31.566940307788986
lhand -26.21006750767652 1.1615111675480632
lfingers 7.12502
lthumb 0.3429778050567809 31.134489783830695
rclavicle -2.70841198220195e-15 1.0731076668921573e-15
rhumerus -36.82666291030352 15.889355368188697 -101.03965585308033
rradius 116.10866326484357
rwrist -13.871929002391024
rhand -17.54855952336812 40.63828816885911
rfingers 7.12502
rthumb 8.705699671483092 10.969516759831084
68
root -0.5151959038321583 16.718570392599204 34.69775768090658 6.0997841375208015 -5.034063584445544 -6.78791601664201
lfemur -36.92303716850515 -5.352663052913209 -11.042680125256602
ltibia 29.352844003174763
lfoot 1.1198256398714173 -0.10788236821590491
ltoes -9.137824504505812
rfemur 8.692629371070957 3.791588201159982 36.57084352893073
rtibia 41.682995058106656
rfoot -17.133542195003848 -5.360912878384813
rtoes -11.841309458098893
lowerback 13.26239531689518 2.7118116655543836 6.323170853971096
upperback -1.230081687889116 4.791858321729622 2.436092942016067
thorax -8.996789773212333 2.0362931461559683 -3.085458133926875
lowerneck -21.456329992647582 -3.677231077579585 -1.8266131172063853
upperneck 11.576810024052557 -5.325928269772382 3.260988829050759
head 7.206730851555018 -2.147764758530574 0.7582238644938193
lclavicle -3.4109161984494372e-15 5.635582813812274e-16
lhumerus -64.63143748902685 -5.325913522997592 93.60735967090191
lradius 93.9440238584198
lwrist 29.522481520496033
lhand -25.661180185761534 2.066182938764334
lfingers 7.12502
lthumb 0.8730870478744563 32.03895034655922
rclavicle -3.4109161984494372e-15 5.635582813812274e-16
rhumerus -35.66751996402125 15.262036720375233 -101.00401596563859
rradius 116.20666895443111
rwrist -13.687630787389843
rhand -17.830851612404143 40.66912137735631
rfingers 7.12502
rthumb 8.433212332186773 10.928105997494162
69
root -0.4400825581062606 16.588661154954856 34.57766656491936 5.545123268410595 -4.816304774223392 -6.304774344597522
lfemur -36.93888438573714 -4.694988896460662 -12.618300373657261
ltibia 32.016208429651655
lfoot 2.819967701441797 -2.7970520784145094
ltoes -7.456362533370392
rfemur 10.95000686796499 2.9595131740797753 35.32088990762766
rtibia 48.62163960274425
rfoot -11.022922089630006 -2.0455988406575196
rtoes -17.90243214904847
lowerback 12.968438497321499 2.790480300373769 5.804140221753976
upperback -1.289889862532209 4.820813673993469 2.072609083073139
thorax -8.969404827756971 2.060013241838741 -3.05064269242521
lowerneck -21.28578446015689 -4.144031459143002 -1.792597043897556
upperneck 11.744325816484944 -5.998927030133242 3.362230533463549
head 7.2348280199588375 -2.4603702330403783 0.7380364488942082
lclavicle -3.622629492910192e-15 4.0999567584152994e-16
lhumerus -67.51215487047179 -3.1603754017600867 91.87931107996425
lradius 90.59743490980884
lwrist 27.529067944929608
lhand -24.77773269207721 2.5788716749329694
lfingers 7.12502
lthumb 1.7262772130504151 32.55226814822911
rclavicle -3.622629492910192e-15 4.0999567584152994e-16
rhumerus -36.27001792355401 14.142145437529834 -100.73470812842068
rradius 116.17870374761421
rwrist -13.33451748379095
rhand -17.992342559612876 40.607808027101214
rfingers 7.12502
rthumb 8.277348828436175 10.796280893129392
70
root -0.32610213849008585 16.639327231068016 35.88954239851654 4.573831074929796 -4.258131058173179 -5.4373829274697165
lfemur -36.018085998757925 -2.882626816548047 -14.825219934487793
ltibia 39.8949175849464
lfoot 4.513057336341046 -5.615712606220419
ltoes -5.024182096011577
rfemur 11.373998863090552 1.6363498324231698 33.70246183424799
rtibia 60.5084905133972
rfoot 1.1645853032071347 1.7390392267958052
rtoes -16.581276575485553
lowerback 12.95541878719124 2.8784272710610495 5.154555446968254
upperback -1.3087407730028497 4.848799776261028 1.6309991277894225
thorax -8.999105535748727 2.0835619290273955 -2.81134967237127
lowerneck -20.89425240481336 -4.56184554237803 -1.7875614189742466
upperneck 12.117034398729734 -6.5807378294792755 3.517140371044034
head 7.3040240398404155 -2.7358827396361765 0.7491916096485937
lclavicle -2.878386704220523e-15 9.498194220183214e-16
lhumerus -69.56089434702157 -1.5213642007120907 90.5776877207568
lradius 88.70097734864765
lwrist 26.347432996068783
lhand -23.795730217102047 2.933111662439516
lfingers 7.12502
lthumb 2.674616978421005 32.904344442221124
rclavicle -2.878386704220523e-15 9.498194220183214e-16
rhumerus -37.981303063947614 13.026369223333926 -100.30585856020686
rradius 116.2954445149444
rwrist -12.915439336826818
rhand -17.923839984380837 40.56611338360898
rfingers 7.12502
rthumb 8.343496869532872 10.728069132647665
